name GIL08_fast1Moments.mot
datacolumns 7
datarows 74
range 0.11666668 0.72500002
endheader

                time	          RHipMoment	          LHipMoment	         RKneeMoment	         LKneeMoment	        RAnkleMoment	        LAnkleMoment	
          0.11666668	       -390.69924927	        596.27398682	         67.50171661	        682.85742188	        -62.51339340	         39.36046982	
          0.12500001	       -427.14337158	        530.82061768	         95.99847412	        698.54052734	        -62.91954041	         54.70317841	
          0.13333336	       -424.08666992	        472.90032959	        112.13510895	        706.15844727	        -58.09994507	         67.71138000	
          0.14166668	       -393.51092529	        427.96890259	        119.14245605	        700.45385742	        -49.20704269	         84.60325623	
          0.15000002	       -369.22113037	        404.38165283	        127.57559967	        688.34112549	        -38.60466003	        103.64739990	
          0.15833335	       -361.76492310	        369.40438843	        138.35830688	        664.41375732	        -28.96461678	        128.76905823	
          0.16666669	       -350.24688721	        327.49765015	        142.59111023	        636.23522949	        -22.03492165	        155.35289001	
          0.17500001	       -327.49035645	        276.50393677	        138.24980164	        599.64404297	        -17.93802834	        184.33331299	
          0.18333335	       -309.86129761	        226.94589233	        132.81163025	        563.24206543	        -15.60139847	        212.11637878	
          0.19166669	       -298.54281616	        174.54301453	        126.41934967	        524.47613525	        -13.91768837	        242.76301575	
          0.20000002	       -270.77117920	        111.07879639	        111.25514221	        488.17160034	        -12.48776817	        273.99511719	
          0.20833334	       -218.81280518	         86.18897247	         85.87260437	        448.61502075	        -11.31526375	        307.53930664	
          0.21666668	       -162.58924866	         72.91794586	         57.60019302	        407.20407104	        -10.39752293	        342.05551147	
          0.22500002	       -127.20982361	         56.63322449	         35.27697372	        363.67758179	         -9.79867363	        381.43127441	
          0.23333335	       -109.34337616	         22.86705208	         20.01784325	        325.48019409	         -9.66081429	        421.59573364	
          0.24166669	        -92.38870239	         11.54664612	          6.94688654	        288.06811523	        -10.16972923	        463.40017700	
          0.25000000	        -81.18905640	        -17.15044403	         -2.91892624	        252.02992249	        -11.37067986	        505.92056274	
          0.25833336	        -82.29796600	        -34.04028702	         -7.60461426	        216.90501404	        -12.94862270	        550.27728271	
          0.26666668	        -80.80410004	        -65.52746582	        -12.64125252	        184.43029785	        -14.57382774	        595.99877930	
          0.27500004	        -67.77950287	        -53.93669510	        -21.45052528	        147.94815063	        -16.03620338	        644.83984375	
          0.28333336	        -48.88591766	        -52.40309525	        -31.32455826	        112.75856781	        -17.06376266	        692.87298584	
          0.29166669	        -31.07114601	        -48.16865921	        -39.11610031	         79.66033173	        -17.52830124	        741.85131836	
          0.30000001	        -20.79772949	        -64.56568146	        -43.27623749	         53.81375122	        -17.43700027	        791.50158691	
          0.30833334	        -14.78093147	        -86.98114014	        -45.59701920	         31.10600090	        -16.90467834	        842.77105713	
          0.31666666	         -8.57916546	       -111.59895325	        -47.84699249	         11.91739368	        -16.28418732	        893.94580078	
          0.32500002	         -1.27978051	       -131.39909363	        -51.03463364	        -11.02753067	        -15.84603214	        946.33502197	
          0.33333334	          6.59262228	       -150.42506409	        -55.72449875	        -32.36105347	        -15.54465389	        996.36468506	
          0.34166670	          7.10904264	       -177.86943054	        -60.02155685	        -50.45571899	        -15.25135422	       1047.32788086	
          0.35000002	          4.61045313	       -202.16282654	        -65.81868744	        -66.14470673	        -15.04087543	       1094.99499512	
          0.35833335	         14.79261875	       -217.74456787	        -77.89252472	        -84.85183716	        -15.13961315	       1141.21594238	
          0.36666667	         37.42879868	       -236.35894775	        -94.96862030	       -104.21163940	        -15.62960243	       1184.30688477	
          0.37500003	         62.87746048	       -277.99511719	       -112.04909515	       -120.95144653	        -16.37085342	       1225.56921387	
          0.38333336	         84.71647644	       -324.73968506	       -126.42817688	       -129.92588806	        -17.11597252	       1264.65905762	
          0.39166668	        127.90786743	       -390.09524536	       -150.49218750	       -139.63645935	        -17.82210732	       1302.95959473	
          0.40000001	        229.94100952	       -442.34451294	       -197.46766663	       -145.68959045	        -18.39016342	       1338.82861328	
          0.40833336	        325.66729736	       -517.25299072	       -239.52128601	       -148.46966553	        -18.00219345	       1375.41979980	
          0.41666669	        394.52966309	       -579.28375244	       -268.49197388	       -144.57687378	        -16.30055428	       1408.88415527	
          0.42500001	        453.04440308	       -643.54895020	       -292.76245117	       -139.74327087	        -13.60855579	       1441.54406738	
          0.43333334	        539.48480225	       -688.97363281	       -327.97958374	       -130.88668823	        -10.62845516	       1471.40563965	
          0.44166669	        612.77612305	       -743.45458984	       -358.85244751	       -116.37128448	         -7.41521978	       1498.37072754	
          0.45000002	        623.36309814	       -774.64337158	       -364.91476440	        -93.01589203	         -3.48526621	       1518.62304688	
          0.45833334	        602.96417236	       -823.31658936	       -360.21359253	        -65.62351227	          1.37497795	       1531.88671875	
          0.46666667	        643.39819336	       -866.98974609	       -378.59024048	        -29.29066086	          6.44576073	       1532.32763672	
          0.47500002	        671.30468750	       -916.15747070	       -391.50149536	         14.77187347	         10.17344856	       1522.09167480	
          0.48333335	        666.81103516	       -961.40527344	       -387.32592773	         67.07753754	          5.44404650	       1495.19104004	
          0.49166667	        560.62823486	      -1016.16131592	       -255.27459717	        129.28884888	        -44.84818268	       1450.94445801	
          0.50000000	        383.81704712	      -1077.28051758	         41.32051468	        202.42691040	       -159.85998535	       1384.54296875	
          0.50833333	        411.37817383	      -1091.74414063	         32.18176651	        263.32540894	       -161.18840027	       1293.09191895	
          0.51666665	        954.07434082	      -1085.87792969	       -103.80002594	        318.64456177	       -185.33691406	       1171.18945313	
          0.52499998	       1114.38012695	      -1095.11730957	        -35.37601852	        377.17901611	       -207.36836243	       1023.09216309	
          0.53333336	        913.24163818	      -1068.56408691	        194.16198730	        421.39263916	       -198.42607117	        842.69592285	
          0.54166669	        711.24670410	       -951.55523682	        473.12786865	        410.79516602	       -169.67088318	        637.54937744	
          0.55000001	        685.29089355	       -820.12811279	        628.81683350	        360.41134644	       -126.77926636	        423.32116699	
          0.55833334	        836.03344727	       -739.84088135	        641.49841309	        309.39041138	        -76.72525787	        239.94027710	
          0.56666672	        772.21728516	       -689.04278564	        743.31439209	        274.70617676	        -39.91173553	        108.92771912	
          0.57500005	        624.68157959	       -584.14440918	        844.99981689	        216.63696289	        -10.06575680	         21.60377121	
          0.58333337	        576.69305420	       -461.88732910	        866.60345459	        155.27165222	         17.78316498	        -31.52589417	
          0.59166670	        595.61755371	       -392.37933350	        845.63354492	        111.81316376	         44.16377258	        -58.83768463	
          0.60000002	        591.26770020	       -306.04687500	        813.97393799	         50.46550369	         69.59886169	        -64.16316986	
          0.60833335	        533.65130615	       -314.37728882	        779.89526367	         78.77171326	         96.11809540	        -65.36697388	
          0.61666667	        459.64581299	       -306.08895874	        739.63885498	         99.87297058	        124.57260895	        -61.39825439	
          0.62500000	        406.70407104	       -287.75552368	        684.70275879	        109.93445587	        155.09263611	        -52.66123581	
          0.63333333	        376.64071655	       -267.81781006	        615.35498047	        108.75044250	        191.26243591	        -41.13553619	
          0.64166671	        334.67831421	       -246.11543274	        547.69006348	         99.47821808	        232.89596558	        -29.66393280	
          0.65000004	        261.28390503	       -212.14732361	        488.24392700	         89.67388153	        277.71627808	        -20.70713234	
          0.65833336	        196.69406128	       -196.95274353	        431.30639648	         85.75666046	        323.00311279	        -15.31945324	
          0.66666669	        180.93531799	       -222.57135010	        368.86029053	         87.20394135	        367.99047852	        -13.23578072	
          0.67500001	        194.75477600	       -255.02647400	        304.55017090	         89.42403412	        413.47485352	        -13.28382778	
          0.68333334	        204.97802734	       -266.52624512	        244.30545044	         88.34763336	        460.75888062	        -13.60110664	
          0.69166666	        211.23855591	       -244.42797852	        186.11967468	         81.33150482	        511.64746094	        -13.01525497	
          0.69999999	        226.56504822	       -206.24057007	        127.91709137	         68.20169830	        564.49102783	        -11.76429844	
          0.70833337	        248.01924133	       -170.51016235	         72.21984863	         51.97886276	        616.92016602	        -10.23076630	
          0.71666670	        229.13493347	       -124.43939209	         29.46219444	         36.93331909	        667.03552246	         -8.65950680	
          0.72500002	        158.28413391	        -79.98743439	          0.80672795	         25.52251244	        715.10345459	         -7.70538473	
